<svg width="20" height="20" viewBox="0 0 20 20" xmlns="http://www.w3.org/2000/svg">
    <path d="M10 0.825C4.92903 0.825 0.825 4.92863 0.825 10C0.825 15.071 4.92863 19.175 10 19.175C15.071 19.175 19.175 15.0714 19.175 10C19.175 4.92899 15.0714 0.825 10 0.825ZM10 17.4188C5.89955 17.4188 2.58125 14.1008 2.58125 10C2.58125 5.89952 5.89924 2.58125 10 2.58125C14.1004 2.58125 17.4188 5.89924 17.4188 10C17.4188 14.1005 14.1008 17.4188 10 17.4188Z" fill="black" stroke="black" stroke-width="0.35"/>
    <path d="M9.95694 12.0927C9.39709 12.0927 8.93008 12.5597 8.93008 13.1195C8.93008 13.6794 9.39709 14.1464 9.95694 14.1464C10.491 14.1464 10.984 13.6874 10.9629 13.1403C10.9838 12.5553 10.5194 12.0927 9.95694 12.0927Z" fill="black" stroke="black" stroke-width="0.3"/>
    <path d="M9.70508 4.94124L9.70505 4.94108L9.69823 4.94303C9.20822 5.08303 8.9125 5.52731 8.9125 6.04479H8.91207L8.91293 6.05615C8.92341 6.19411 8.93302 6.33302 8.94267 6.47253L8.94269 6.47278C8.95229 6.61155 8.96193 6.7509 8.97245 6.88948C9.00224 7.41691 9.03202 7.93908 9.06181 8.46121L9.06181 8.46123C9.09163 8.98384 9.12144 9.5064 9.15125 10.0342L9.15127 10.0346C9.177 10.4721 9.52017 10.7931 9.9569 10.7931C10.3982 10.7931 10.7414 10.4496 10.7626 10.012L10.7628 10.012V10.0047C10.7628 9.78647 10.7629 9.59341 10.7832 9.38058L10.7833 9.38059L10.7836 9.37489C10.8029 9.03665 10.823 8.69837 10.8432 8.35987L10.8432 8.35985C10.8634 8.02142 10.8836 7.68276 10.9029 7.34407L10.9029 7.34407L10.9029 7.34273C10.9134 7.12526 10.9282 6.90753 10.9431 6.68807L10.9431 6.68734C10.958 6.46861 10.973 6.24814 10.9836 6.02743L10.9838 6.02744V6.02024C10.9838 5.84811 10.9607 5.68672 10.8911 5.52314L10.8912 5.52312L10.8896 5.51964C10.6806 5.06064 10.191 4.8269 9.70508 4.94124Z" fill="black" stroke="black" stroke-width="0.3"/>
</svg>
